<svg width="33" height="32" viewBox="0 0 33 32" fill="none" xmlns="http://www.w3.org/2000/svg">
<rect x="0.5" width="32" height="32" rx="5" fill="white" fill-opacity="0.31"/>
<rect x="0.75" y="0.25" width="31.5" height="31.5" rx="4.75" stroke="white" stroke-opacity="0.52" stroke-width="0.5"/>
<path d="M14.5 22C14.7652 22 15.0196 21.8946 15.2071 21.7071C15.3946 21.5196 15.5 21.2652 15.5 21V15C15.5 14.7348 15.3946 14.4804 15.2071 14.2929C15.0196 14.1054 14.7652 14 14.5 14C14.2348 14 13.9804 14.1054 13.7929 14.2929C13.6054 14.4804 13.5 14.7348 13.5 15V21C13.5 21.2652 13.6054 21.5196 13.7929 21.7071C13.9804 21.8946 14.2348 22 14.5 22ZM24.5 10H20.5V9C20.5 8.20435 20.1839 7.44129 19.6213 6.87868C19.0587 6.31607 18.2956 6 17.5 6H15.5C14.7044 6 13.9413 6.31607 13.3787 6.87868C12.8161 7.44129 12.5 8.20435 12.5 9V10H8.5C8.23478 10 7.98043 10.1054 7.79289 10.2929C7.60536 10.4804 7.5 10.7348 7.5 11C7.5 11.2652 7.60536 11.5196 7.79289 11.7071C7.98043 11.8946 8.23478 12 8.5 12H9.5V23C9.5 23.7956 9.81607 24.5587 10.3787 25.1213C10.9413 25.6839 11.7044 26 12.5 26H20.5C21.2956 26 22.0587 25.6839 22.6213 25.1213C23.1839 24.5587 23.5 23.7956 23.5 23V12H24.5C24.7652 12 25.0196 11.8946 25.2071 11.7071C25.3946 11.5196 25.5 11.2652 25.5 11C25.5 10.7348 25.3946 10.4804 25.2071 10.2929C25.0196 10.1054 24.7652 10 24.5 10ZM14.5 9C14.5 8.73478 14.6054 8.48043 14.7929 8.29289C14.9804 8.10536 15.2348 8 15.5 8H17.5C17.7652 8 18.0196 8.10536 18.2071 8.29289C18.3946 8.48043 18.5 8.73478 18.5 9V10H14.5V9ZM21.5 23C21.5 23.2652 21.3946 23.5196 21.2071 23.7071C21.0196 23.8946 20.7652 24 20.5 24H12.5C12.2348 24 11.9804 23.8946 11.7929 23.7071C11.6054 23.5196 11.5 23.2652 11.5 23V12H21.5V23ZM18.5 22C18.7652 22 19.0196 21.8946 19.2071 21.7071C19.3946 21.5196 19.5 21.2652 19.5 21V15C19.5 14.7348 19.3946 14.4804 19.2071 14.2929C19.0196 14.1054 18.7652 14 18.5 14C18.2348 14 17.9804 14.1054 17.7929 14.2929C17.6054 14.4804 17.5 14.7348 17.5 15V21C17.5 21.2652 17.6054 21.5196 17.7929 21.7071C17.9804 21.8946 18.2348 22 18.5 22Z" fill="white"/>
</svg>
