<svg width="157" height="156" viewBox="0 0 157 156" fill="none" xmlns="http://www.w3.org/2000/svg">
<path d="M155.851 133.475C159.613 126.029 148.86 88.7993 74.2998 88.7993C20.4822 88.7993 -4.21855 119.272 1.2423 134.716" fill="url(#paint0_radial_634_5666)"/>
<mask id="mask0_634_5666" style="mask-type:luminance" maskUnits="userSpaceOnUse" x="0" y="88" width="157" height="47">
<path d="M155.851 133.475C159.613 126.029 148.86 88.7993 74.2998 88.7993C20.4822 88.7993 -4.21855 119.272 1.2423 134.716" fill="white"/>
</mask>
<g mask="url(#mask0_634_5666)">
<ellipse opacity="0.671968" cx="62.8007" cy="121.677" rx="4.10047" ry="2.27761" fill="url(#paint1_linear_634_5666)"/>
<ellipse opacity="0.256348" cx="104.652" cy="106.2" rx="6.46963" ry="3.55307" fill="url(#paint2_linear_634_5666)"/>
<ellipse opacity="0.729957" cx="31.0258" cy="96.7247" rx="6.46963" ry="3.55307" fill="url(#paint3_linear_634_5666)"/>
</g>
<path opacity="0.5" d="M61.28 97.0581C61.28 97.0581 77.1458 104.518 83.44 107.382C88.4255 109.65 114.097 116.904 117.155 114.842C120.214 112.78 126.966 107.12 124.737 103.242C122.508 99.3649 110.784 92.4024 105.177 91.3851C99.5701 90.3678 83.5379 94.9923 83.5379 94.9923L69.8628 97.3407L61.28 97.0581Z" fill="url(#paint4_linear_634_5666)"/>
<path d="M73.0403 63.7014L55.3603 76.7014L60.0744 65.6414L77.7803 54.4007L73.0403 63.7014Z" fill="#E2E7EC"/>
<path d="M59.78 65.8694L77.78 54.6011V85.3328L61.28 96.9011L59.78 65.8694Z" fill="#D8DFE6"/>
<path d="M77.78 54.6011L105.38 61.0581V91.8011L77.78 85.344V54.6011Z" fill="#E9EFF1"/>
<path d="M59.78 65.8677L87.98 72.458V103.201L61.28 97.0697L59.78 65.8677Z" fill="#E8EAEB"/>
<path d="M87.3801 72.4704L105.38 61.2021V91.9338L87.3801 103.202V72.4704Z" fill="#D8DFE6"/>
<mask id="mask1_634_5666" style="mask-type:luminance" maskUnits="userSpaceOnUse" x="87" y="61" width="19" height="43">
<path d="M87.3801 72.4704L105.38 61.2021V91.9338L87.3801 103.202V72.4704Z" fill="white"/>
</mask>
<g mask="url(#mask1_634_5666)">
<rect x="94.0659" y="58.6406" width="5.65714" height="47.1219" fill="#C7D0D9"/>
</g>
<path d="M95.4742 81.6021L113.18 70.3615L105.086 61.2021L87.3801 72.4428L95.4742 81.6021Z" fill="#E2E7EC"/>
<path opacity="0.5" d="M45.9722 97.8293L73.8198 112.058L76.4198 104.518L49.097 95.4296L45.9722 97.8293Z" fill="url(#paint5_linear_634_5666)"/>
<path d="M45.2118 74.439L54.8143 75.196L52.6819 96.0831C52.6819 96.0831 52.4952 96.2919 52.0421 96.2109C51.5891 96.1299 51.1138 95.8777 51.1138 95.8777L49.6857 79.273C49.6857 79.273 48.8597 85.1444 48.9174 86.7963C48.9608 88.0408 49.3864 89.5591 49.6141 90.8578C49.8101 91.9754 50.2225 94.6465 50.2225 94.6465C50.2225 94.6465 49.7352 94.869 49.4761 94.9193C49.2169 94.9695 48.8847 94.6932 48.8847 94.6932C48.8847 94.6932 45.5179 88.1577 45.4746 86.9166C45.4312 85.6754 45.2118 74.439 45.2118 74.439Z" fill="url(#paint6_linear_634_5666)"/>
<path d="M48.735 94.6617C48.735 94.6617 48.3073 95.4319 47.776 95.9014C47.2447 96.3709 46.1962 96.9315 45.9572 97.1863C45.7182 97.441 45.9792 97.8164 45.9792 97.8164L48.5488 97.7267L50.602 95.9896L50.3151 94.3343L48.735 94.6617Z" fill="#677285"/>
<path d="M52.9232 95.5544L53.5231 97.2182C53.5231 97.2182 52.538 97.9811 51.1769 98.1935C49.8158 98.4058 48.8779 98.0796 48.8779 98.0796C48.8779 98.0796 48.6322 97.5844 49.0954 97.3728C49.3081 97.2756 49.7849 96.8715 50.2035 96.3542C50.3925 96.1206 51.1043 95.6179 51.1043 95.6179L52.9232 95.5544Z" fill="#677285"/>
<path d="M57.225 63.5495C57.225 63.5495 58.012 64.7468 58.4946 64.4265C58.9772 64.1061 61.99 61.0181 61.99 61.0181C61.99 61.0181 62.8862 60.3282 63.0519 60.4922C63.2177 60.6562 62.753 61.0181 62.753 61.0181C62.753 61.0181 63.731 61.1142 64.0366 61.1142C64.3421 61.1142 64.9849 61.6021 64.5646 61.7662C64.1443 61.9304 62.514 61.971 62.514 61.971C62.514 61.971 60.0389 66.6516 58.7491 66.9835C57.4594 67.3154 55.6824 65.4384 55.6824 65.4384L57.225 63.5495Z" fill="#FDE7E6"/>
<path d="M44.6499 63.6348C44.6499 63.6348 44.1339 64.6914 43.6663 64.4379C43.1986 64.1845 40.5748 61.4174 40.5748 61.4174C40.5748 61.4174 39.701 60.8823 39.4874 60.9786C39.2737 61.0748 39.8005 61.4174 39.8005 61.4174C39.8005 61.4174 38.5149 61.5217 38.2731 61.6189C38.0312 61.7161 37.7496 62.0142 38.1152 62.1497C38.4809 62.2852 39.8805 62.3816 39.8805 62.3816C39.8805 62.3816 41.8263 66.2266 43.3005 66.6761C44.7747 67.1257 46.0306 65.3543 46.0306 65.3543L44.6499 63.6348Z" fill="#FDE7E6"/>
<path d="M49.4231 60.3989V58.5098C49.4231 58.5098 48.4436 58.5594 48.0455 57.9036C47.6473 57.2477 47.5398 55.3865 47.5398 55.3865L47.8398 54.5236L50.7899 54.3989L52.3398 55.7197L51.6182 56.9942L51.4806 57.2392L52.1684 60.1358L49.4231 60.3989Z" fill="#FDE7E6"/>
<mask id="mask2_634_5666" style="mask-type:luminance" maskUnits="userSpaceOnUse" x="47" y="54" width="6" height="7">
<path d="M49.4231 60.3989V58.5098C49.4231 58.5098 48.4436 58.5594 48.0455 57.9036C47.6473 57.2477 47.5398 55.3865 47.5398 55.3865L47.8398 54.5236L50.7899 54.3989L52.3398 55.7197L51.6182 56.9942L51.4806 57.2392L52.1684 60.1358L49.4231 60.3989Z" fill="white"/>
</mask>
<g mask="url(#mask2_634_5666)">
<path d="M51.3423 56.7147C50.4704 57.799 48.9625 58.5568 48.7661 58.5568C48.5698 58.5568 49.8626 59.9168 49.8626 59.9168L50.9144 60.399L52.4073 60.0825L52.9402 58.5568L51.9994 56.8259C51.9994 56.8259 52.2141 55.6304 51.3423 56.7147Z" fill="url(#paint7_linear_634_5666)"/>
</g>
<path d="M44.0232 64.3939L45.4729 66.3467L46.3976 65.3703C46.3976 65.3703 45.6943 69.226 45.4729 71.0751C45.2515 72.9243 45.2104 74.7661 45.2104 74.7661C45.2104 74.7661 47.5318 75.628 49.2622 75.773C50.9927 75.918 55.0213 75.5446 55.0213 75.5446L54.5013 64.6913L56.0101 66.0921L57.7817 64.0464C57.7817 64.0464 54.732 59.3597 54.1553 59.0867C53.5785 58.8137 51.9753 59.0867 51.9753 59.0867C51.9753 59.0867 50.8377 60.433 50.3763 60.4518C49.915 60.4706 48.8917 59.0867 48.8917 59.0867C48.8917 59.0867 47.2568 58.8256 46.7815 59.3597C46.3061 59.8939 44.0232 64.3939 44.0232 64.3939Z" fill="url(#paint8_linear_634_5666)"/>
<path d="M47.5397 55.4077C47.5397 55.4077 47.8874 54.5304 48.3412 54.6832C48.7707 54.8279 49.1427 55.1721 49.677 55.3337C50.2113 55.4953 50.2704 54.7694 50.6335 54.892C50.9966 55.0145 50.7569 56.0824 51.0128 56.2812C51.2688 56.4801 51.2688 54.892 51.8143 55.3195C52.3599 55.7471 51.2451 56.9504 51.2451 56.9504C51.2451 56.9504 51.388 57.6901 51.4339 57.7404C51.4797 57.7907 51.4745 57.2023 51.4745 57.2023C51.4745 57.2023 51.9955 57.0023 52.2176 56.1001C52.4396 55.198 52.5356 54.8388 52.2176 54.1834C51.8995 53.5279 51.8088 53.0146 51.0128 52.7054C50.2168 52.3961 49.6129 52.5171 49.0565 52.7054C48.5002 52.8936 48.097 53.2677 47.8397 53.64C47.2397 54.5236 47.5397 55.4077 47.5397 55.4077Z" fill="#4D364F"/>
<path fill-rule="evenodd" clip-rule="evenodd" d="M101.18 32.2711C100.548 32.4644 87.4592 40.2957 87.4592 40.2957L91.2788 40.5805L93.9931 43.5803C93.9931 43.5803 101.812 32.0778 101.18 32.2711Z" fill="#E8EAEB"/>
<mask id="mask3_634_5666" style="mask-type:luminance" maskUnits="userSpaceOnUse" x="87" y="32" width="15" height="12">
<path fill-rule="evenodd" clip-rule="evenodd" d="M101.18 32.2711C100.548 32.4644 87.4592 40.2957 87.4592 40.2957L91.2788 40.5805L93.9931 43.5803C93.9931 43.5803 101.812 32.0778 101.18 32.2711Z" fill="white"/>
</mask>
<g mask="url(#mask3_634_5666)">
<path fill-rule="evenodd" clip-rule="evenodd" d="M91.2787 40.5812L101.18 32.2718L93.9929 43.581L91.2787 40.5812Z" fill="#D8DFE6"/>
</g>
<path fill-rule="evenodd" clip-rule="evenodd" d="M99.2146 41.3461L94.6246 40.8663L101.185 32.3522L99.2146 41.3461Z" fill="#E8EAEB"/>
<path fill-rule="evenodd" clip-rule="evenodd" d="M90.764 47.0188C91.0508 46.4119 91.3395 45.7837 91.6302 45.1343L92.1049 45.3467C91.8127 45.9994 91.5225 46.6308 91.2342 47.241L90.764 47.0188ZM88.8961 50.7218C89.213 50.1371 89.5325 49.5246 89.8546 48.8845L90.3191 49.1182C89.9947 49.763 89.6728 50.3801 89.3533 50.9696L88.8961 50.7218ZM87.8769 52.5223C87.5074 53.1452 87.1416 53.729 86.7796 54.2735L87.2126 54.5614C87.5797 54.0092 87.9502 53.418 88.3242 52.7876L87.8769 52.5223ZM84.242 57.5131C84.6805 57.0582 85.1257 56.539 85.5772 55.9556L85.9884 56.2739C85.5258 56.8716 85.0685 57.405 84.6163 57.874L84.242 57.5131ZM82.7153 58.8557C82.1074 59.2913 81.5155 59.5925 80.9398 59.7609L81.0858 60.26C81.721 60.0742 82.3649 59.7465 83.0182 59.2783L82.7153 58.8557ZM77.2726 58.9116C77.8444 59.3727 78.4258 59.6747 79.0174 59.8203L78.8931 60.3253C78.2241 60.1605 77.5749 59.8233 76.9462 59.3163L77.2726 58.9116ZM75.8705 57.4345C75.8383 57.3923 75.8061 57.3496 75.774 57.3064C75.3554 56.7429 75.0514 56.2082 74.8575 55.7031L74.372 55.8895C74.5838 56.4413 74.9111 57.0168 75.3566 57.6165C75.3901 57.6616 75.4237 57.7062 75.4573 57.7502L75.8705 57.4345ZM75.7462 52.2033C75.1845 52.6673 74.8232 53.1998 74.6759 53.7939L74.1711 53.6687C74.3469 52.9598 74.7717 52.3338 75.415 51.8024L75.7462 52.2033ZM77.4833 51.2273C78.0684 50.9988 78.7264 50.8124 79.4398 50.6718L79.3392 50.1616C78.5967 50.308 77.9093 50.5027 77.2942 50.7429L77.4833 51.2273ZM83.5111 50.3736C82.8192 50.349 82.1298 50.3604 81.4584 50.4077L81.4219 49.8889C82.1117 49.8404 82.8195 49.8286 83.5296 49.8539L83.5111 50.3736ZM85.5814 50.556C86.2784 50.6553 86.9527 50.7912 87.5896 50.9616L87.724 50.4593C87.0666 50.2834 86.3719 50.1433 85.6547 50.0412L85.5814 50.556ZM91.2467 52.675C90.7712 52.2881 90.191 51.9407 89.5213 51.6388L89.735 51.1648C90.4439 51.4843 91.0624 51.8546 91.5749 52.2717L91.2467 52.675ZM92.4862 54.2372C92.6116 54.5287 92.6919 54.8323 92.7257 55.1482C92.7615 55.4823 92.7739 55.8181 92.7629 56.1557L93.2826 56.1726C93.2944 55.8109 93.2811 55.4509 93.2428 55.0928C93.2034 54.7249 93.1097 54.3706 92.9638 54.0316L92.4862 54.2372ZM91.6526 60.0299C91.9872 59.3986 92.2463 58.774 92.43 58.156L92.9284 58.3041C92.7347 58.956 92.4624 59.6125 92.112 60.2735L91.6526 60.0299ZM90.5523 61.7686C90.1676 62.2925 89.7326 62.8207 89.2475 63.3529L89.6318 63.7032C90.129 63.1577 90.5755 62.6155 90.9714 62.0764L90.5523 61.7686ZM86.2607 66.1664C86.8126 65.7095 87.3294 65.2553 87.8112 64.8038L88.1668 65.1833C87.6771 65.6421 87.1523 66.1034 86.5923 66.567L86.2607 66.1664ZM84.6222 67.4533C84.0877 67.8532 83.527 68.2551 82.94 68.6591L83.2347 69.0874C83.8273 68.6797 84.3937 68.2737 84.9338 67.8696L84.6222 67.4533ZM80.1138 70.4949C80.4832 70.2675 80.8446 70.0408 81.1979 69.8146L81.4782 70.2525C81.1223 70.4804 80.7584 70.7088 80.3863 70.9378L80.1138 70.4949Z" fill="#C7D0D9"/>
<defs>
<radialGradient id="paint0_radial_634_5666" cx="0" cy="0" r="1" gradientUnits="userSpaceOnUse" gradientTransform="translate(68.1577 104.723) rotate(-90) scale(26.6969 278.823)">
<stop stop-color="#EBEDF0" stop-opacity="0.24"/>
<stop offset="0.536775" stop-color="#EBEDF0" stop-opacity="0.845525"/>
<stop offset="1" stop-color="#E0E4E7" stop-opacity="0.01"/>
</radialGradient>
<linearGradient id="paint1_linear_634_5666" x1="59.5001" y1="121.073" x2="60.7494" y2="123.745" gradientUnits="userSpaceOnUse">
<stop stop-color="#E1E7EA"/>
<stop offset="1" stop-color="#D0D6DC"/>
</linearGradient>
<linearGradient id="paint2_linear_634_5666" x1="99.2192" y1="105.867" x2="101.505" y2="110.635" gradientUnits="userSpaceOnUse">
<stop stop-color="#E1E7EA"/>
<stop offset="1" stop-color="#D0D6DC"/>
</linearGradient>
<linearGradient id="paint3_linear_634_5666" x1="26.9006" y1="96.7822" x2="28.194" y2="101.935" gradientUnits="userSpaceOnUse">
<stop stop-color="#FBFBFB"/>
<stop offset="1" stop-color="#D9DFE3"/>
</linearGradient>
<linearGradient id="paint4_linear_634_5666" x1="58.9487" y1="99.645" x2="63.5639" y2="120.342" gradientUnits="userSpaceOnUse">
<stop stop-color="#C4CDD1"/>
<stop offset="1" stop-color="#C6CFD3" stop-opacity="0.01"/>
</linearGradient>
<linearGradient id="paint5_linear_634_5666" x1="45.0059" y1="101.725" x2="50.3597" y2="115.697" gradientUnits="userSpaceOnUse">
<stop stop-color="#C4CDD1"/>
<stop offset="1" stop-color="#C6CFD3" stop-opacity="0.01"/>
</linearGradient>
<linearGradient id="paint6_linear_634_5666" x1="55.5084" y1="96.1212" x2="54.7454" y2="74.2713" gradientUnits="userSpaceOnUse">
<stop stop-color="#A1A7B8"/>
<stop offset="1" stop-color="#7B8195"/>
</linearGradient>
<linearGradient id="paint7_linear_634_5666" x1="51.7554" y1="59.1305" x2="51.7554" y2="57.3001" gradientUnits="userSpaceOnUse">
<stop stop-color="#FBD8D6"/>
<stop offset="1" stop-color="#EAC0BE" stop-opacity="0.7"/>
</linearGradient>
<linearGradient id="paint8_linear_634_5666" x1="37.063" y1="66.6499" x2="51.5283" y2="81.9093" gradientUnits="userSpaceOnUse">
<stop stop-color="#E5E9F0"/>
<stop offset="1" stop-color="#D2DAE8"/>
</linearGradient>
</defs>
</svg>
