<svg width="18" height="18" viewBox="0 0 18 18" fill="none" xmlns="http://www.w3.org/2000/svg">
<path d="M7.33636 2.91795C7.75927 2.55755 7.97072 2.37735 8.1918 2.27168C8.70315 2.02728 9.2976 2.02728 9.80895 2.27168C10.03 2.37735 10.2415 2.55755 10.6644 2.91795C10.8327 3.06139 10.9169 3.13311 11.0067 3.19335C11.2128 3.33144 11.4442 3.42729 11.6875 3.47533C11.7937 3.49628 11.9039 3.50508 12.1243 3.52267C12.6782 3.56687 12.9551 3.58897 13.1862 3.67058C13.7206 3.85934 14.1409 4.27968 14.3297 4.81407C14.4113 5.04512 14.4334 5.32206 14.4776 5.87594C14.4952 6.09639 14.504 6.20661 14.5249 6.31276C14.573 6.5561 14.6688 6.78748 14.8069 6.99352C14.8672 7.0834 14.9389 7.16756 15.0823 7.33588C15.4427 7.75878 15.6229 7.97023 15.7286 8.19131C15.973 8.70266 15.973 9.29711 15.7286 9.80846C15.6229 10.0295 15.4427 10.241 15.0823 10.6639C14.9389 10.8322 14.8672 10.9164 14.8069 11.0063C14.6688 11.2123 14.573 11.4437 14.5249 11.687C14.504 11.7932 14.4952 11.9034 14.4776 12.1238C14.4334 12.6777 14.4113 12.9547 14.3297 13.1857C14.1409 13.7201 13.7206 14.1404 13.1862 14.3292C12.9551 14.4108 12.6782 14.4329 12.1243 14.4771C11.9039 14.4947 11.7937 14.5035 11.6875 14.5244C11.4442 14.5725 11.2128 14.6683 11.0067 14.8064C10.9169 14.8667 10.8327 14.9384 10.6644 15.0818C10.2415 15.4422 10.03 15.6224 9.80895 15.7281C9.2976 15.9725 8.70315 15.9725 8.1918 15.7281C7.97072 15.6224 7.75927 15.4422 7.33636 15.0818C7.16805 14.9384 7.08389 14.8667 6.99401 14.8064C6.78797 14.6683 6.55659 14.5725 6.31325 14.5244C6.2071 14.5035 6.09687 14.4947 5.87643 14.4771C5.32255 14.4329 5.04561 14.4108 4.81456 14.3292C4.28017 14.1404 3.85982 13.7201 3.67107 13.1857C3.58946 12.9546 3.56736 12.6777 3.52316 12.1238C3.50557 11.9034 3.49677 11.7932 3.47582 11.687C3.42777 11.4437 3.33193 11.2123 3.19384 11.0063C3.13359 10.9164 3.06187 10.8322 2.91844 10.6639C2.55804 10.241 2.37784 10.0295 2.27217 9.80846C2.02777 9.29711 2.02777 8.70266 2.27217 8.19131C2.37784 7.97023 2.55804 7.75878 2.91844 7.33588C3.06187 7.16756 3.13359 7.0834 3.19384 6.99352C3.33193 6.78748 3.42777 6.5561 3.47582 6.31276C3.49677 6.20661 3.50557 6.09639 3.52316 5.87594C3.56736 5.32206 3.58946 5.04512 3.67107 4.81407C3.85982 4.27968 4.28017 3.85934 4.81456 3.67058C5.04561 3.58897 5.32255 3.56687 5.87643 3.52267C6.09687 3.50508 6.2071 3.49628 6.31325 3.47533C6.55659 3.42729 6.78797 3.33144 6.99401 3.19335C7.08389 3.13311 7.16805 3.06139 7.33636 2.91795Z" fill="url(#paint0_linear_829_30211)" stroke="url(#paint1_linear_829_30211)" stroke-width="0.2"/>
<path d="M6.75 11.25L11.25 6.75" stroke="white" stroke-linecap="round"/>
<path d="M10.875 10.625C11.0131 10.625 11.125 10.7369 11.125 10.875C11.125 11.0131 11.0131 11.125 10.875 11.125C10.7369 11.125 10.625 11.0131 10.625 10.875C10.625 10.7369 10.7369 10.625 10.875 10.625Z" fill="white" stroke="white"/>
<path d="M7.125 6.875C7.26307 6.875 7.375 6.98693 7.375 7.125C7.375 7.26307 7.26307 7.375 7.125 7.375C6.98693 7.375 6.875 7.26307 6.875 7.125C6.875 6.98693 6.98693 6.875 7.125 6.875Z" fill="white" stroke="white"/>
<defs>
<linearGradient id="paint0_linear_829_30211" x1="3.50049" y1="4" x2="14.0005" y2="14" gradientUnits="userSpaceOnUse">
<stop stop-color="#FF7079"/>
<stop offset="0.58638" stop-color="#CC232D"/>
<stop offset="1" stop-color="#7F0008"/>
</linearGradient>
<linearGradient id="paint1_linear_829_30211" x1="4.50049" y1="4" x2="14.0005" y2="14.5" gradientUnits="userSpaceOnUse">
<stop stop-color="#FFBDC1"/>
<stop offset="1" stop-color="#F2AEB3" stop-opacity="0"/>
</linearGradient>
</defs>
</svg>
