<svg width="13" height="12" viewBox="0 0 13 12" fill="none" xmlns="http://www.w3.org/2000/svg">
<path d="M0.815789 9.63181H12.1842C12.3579 9.63181 12.5 9.4897 12.5 9.31602C12.5 9.14234 12.3579 9.00023 12.1842 9.00023H11.8526C11.72 6.72023 10.1632 4.81918 8.05684 4.17813C8.06947 4.10234 8.07895 4.02655 8.07895 3.9476C8.07895 3.07602 7.37158 2.36865 6.5 2.36865C5.62842 2.36865 4.92105 3.07602 4.92105 3.9476C4.92105 4.02655 4.93053 4.10234 4.94316 4.17813C2.83684 4.81918 1.28 6.72023 1.14737 9.00023H0.815789C0.642105 9.00023 0.5 9.14234 0.5 9.31602C0.5 9.4897 0.642105 9.63181 0.815789 9.63181ZM6.5 3.00023C7.02105 3.00023 7.44737 3.42655 7.44737 3.9476C7.44737 3.97602 7.44105 4.00444 7.43789 4.03602C7.13158 3.98234 6.81895 3.9476 6.5 3.9476C6.18105 3.9476 5.86526 3.98234 5.56211 4.03602C5.55895 4.00444 5.55263 3.97602 5.55263 3.9476C5.55263 3.42655 5.97895 3.00023 6.5 3.00023ZM6.5 4.57918C9.00421 4.57918 11.0568 6.53707 11.2211 9.00023H1.77895C1.94316 6.53707 3.99579 4.57918 6.5 4.57918Z" fill="#DB353F" stroke="#DB353F" stroke-width="0.3"/>
<path d="M7.22195 5.40039C7.07195 5.40039 6.94922 5.52312 6.94922 5.67312C6.94922 5.82312 7.07195 5.94585 7.22195 5.94585C8.42467 5.94585 9.40376 6.92494 9.40376 8.12766C9.40376 8.27766 9.52649 8.40039 9.67649 8.40039C9.82649 8.40039 9.94922 8.27766 9.94922 8.12766C9.94922 6.62494 8.72467 5.40039 7.22195 5.40039Z" fill="#DB353F"/>
</svg>
