<svg width="25" height="25" viewBox="0 0 25 25" fill="none" xmlns="http://www.w3.org/2000/svg">
<path d="M7.5 11.9523H15.09L11.79 8.66233C11.6017 8.47403 11.4959 8.21864 11.4959 7.95233C11.4959 7.68603 11.6017 7.43064 11.79 7.24233C11.9783 7.05403 12.2337 6.94824 12.5 6.94824C12.7663 6.94824 13.0217 7.05403 13.21 7.24233L18.21 12.2423C18.301 12.3374 18.3724 12.4496 18.42 12.5723C18.52 12.8158 18.52 13.0889 18.42 13.3323C18.3724 13.4551 18.301 13.5672 18.21 13.6623L13.21 18.6623C13.117 18.7561 13.0064 18.8305 12.8846 18.8812C12.7627 18.932 12.632 18.9581 12.5 18.9581C12.368 18.9581 12.2373 18.932 12.1154 18.8812C11.9936 18.8305 11.883 18.7561 11.79 18.6623C11.6963 18.5694 11.6219 18.4588 11.5711 18.3369C11.5203 18.2151 11.4942 18.0843 11.4942 17.9523C11.4942 17.8203 11.5203 17.6896 11.5711 17.5678C11.6219 17.4459 11.6963 17.3353 11.79 17.2423L15.09 13.9523H7.5C7.23478 13.9523 6.98043 13.847 6.79289 13.6594C6.60535 13.4719 6.5 13.2176 6.5 12.9523C6.5 12.6871 6.60535 12.4328 6.79289 12.2452C6.98043 12.0577 7.23478 11.9523 7.5 11.9523Z" fill="black"/>
</svg>
