<svg width="20" height="21" viewBox="0 0 20 21" fill="none" xmlns="http://www.w3.org/2000/svg">
<path d="M8.04717 14.6664L5.83313 14.6664L5.83313 12.1664M5.0853 12.9143L14.5089 3.4906C15.1598 2.83972 16.2151 2.83972 16.866 3.4906C17.5168 4.14147 17.5168 5.19675 16.866 5.84762L7.30333 15.4103C6.85662 15.857 6.63326 16.0803 6.386 16.2724C6.16637 16.4429 5.93289 16.5949 5.688 16.7266C5.41229 16.875 5.11762 16.9888 4.52829 17.2163L2.5 17.9995L3.1526 16.0415C3.37532 15.3733 3.48669 15.0392 3.64158 14.7272C3.77914 14.4501 3.94212 14.1864 4.12841 13.9394C4.33818 13.6614 4.58722 13.4123 5.0853 12.9143Z" stroke="white" stroke-width="1.5" stroke-linecap="round" stroke-linejoin="round"/>
</svg>
