<svg width="51" height="38" viewBox="0 0 51 38" fill="none" xmlns="http://www.w3.org/2000/svg">
<g opacity="0.07">
<path d="M14.0418 13.5417H14.0627M36.9585 13.5417H36.9793M14.0418 36.4583H14.0627M27.5835 27.0833H27.6043M36.9585 36.4583H36.9793M35.9168 43.75H44.2502V35.4167M29.6668 34.375V43.75M44.2502 29.1667H34.8752M33.0002 20.8333H40.9168C42.0836 20.8333 42.667 20.8333 43.1127 20.6063C43.5047 20.4065 43.8234 20.0878 44.0231 19.6958C44.2502 19.2502 44.2502 18.6668 44.2502 17.5V9.58333C44.2502 8.41656 44.2502 7.83317 44.0231 7.38752C43.8234 6.99552 43.5047 6.67681 43.1127 6.47707C42.667 6.25 42.0836 6.25 40.9168 6.25H33.0002C31.8334 6.25 31.25 6.25 30.8044 6.47707C30.4124 6.67681 30.0937 6.99552 29.8939 7.38752C29.6668 7.83317 29.6668 8.41656 29.6668 9.58333V17.5C29.6668 18.6668 29.6668 19.2502 29.8939 19.6958C30.0937 20.0878 30.4124 20.4065 30.8044 20.6063C31.25 20.8333 31.8334 20.8333 33.0002 20.8333ZM10.0835 20.8333H18.0002C19.167 20.8333 19.7503 20.8333 20.196 20.6063C20.588 20.4065 20.9067 20.0878 21.1064 19.6958C21.3335 19.2502 21.3335 18.6668 21.3335 17.5V9.58333C21.3335 8.41656 21.3335 7.83317 21.1064 7.38752C20.9067 6.99552 20.588 6.67681 20.196 6.47707C19.7503 6.25 19.167 6.25 18.0002 6.25H10.0835C8.91674 6.25 8.33335 6.25 7.8877 6.47707C7.4957 6.67681 7.17699 6.99552 6.97725 7.38752C6.75018 7.83317 6.75018 8.41656 6.75018 9.58333V17.5C6.75018 18.6668 6.75018 19.2502 6.97725 19.6958C7.17699 20.0878 7.4957 20.4065 7.8877 20.6063C8.33335 20.8333 8.91674 20.8333 10.0835 20.8333ZM10.0835 43.75H18.0002C19.167 43.75 19.7503 43.75 20.196 43.5229C20.588 43.3232 20.9067 43.0045 21.1064 42.6125C21.3335 42.1668 21.3335 41.5834 21.3335 40.4167V32.5C21.3335 31.3332 21.3335 30.7498 21.1064 30.3042C20.9067 29.9122 20.588 29.5935 20.196 29.3937C19.7503 29.1667 19.167 29.1667 18.0002 29.1667H10.0835C8.91674 29.1667 8.33335 29.1667 7.8877 29.3937C7.4957 29.5935 7.17699 29.9122 6.97725 30.3042C6.75018 30.7498 6.75018 31.3332 6.75018 32.5V40.4167C6.75018 41.5834 6.75018 42.1668 6.97725 42.6125C7.17699 43.0045 7.4957 43.3232 7.8877 43.5229C8.33335 43.75 8.91674 43.75 10.0835 43.75Z" stroke="#1F76B8" stroke-width="3.1684" stroke-linecap="round" stroke-linejoin="round"/>
</g>
</svg>
