<svg width="17" height="17" viewBox="0 0 17 17" fill="none" xmlns="http://www.w3.org/2000/svg">
<path d="M12.5 3.89025C11.4391 2.82939 10.0003 2.2334 8.49999 2.2334C6.9997 2.2334 5.56086 2.82939 4.49999 3.89025C3.43913 4.95112 2.84314 6.38996 2.84314 7.89025C2.84314 9.39054 3.43913 10.8294 4.49999 11.8903L8.01333 15.4103C8.0753 15.4727 8.14904 15.5223 8.23028 15.5562C8.31152 15.59 8.39865 15.6075 8.48666 15.6075C8.57467 15.6075 8.6618 15.59 8.74304 15.5562C8.82428 15.5223 8.89802 15.4727 8.95999 15.4103L12.5 11.8569C13.5564 10.8005 14.1499 9.36762 14.1499 7.87359C14.1499 6.37955 13.5564 4.9467 12.5 3.89025ZM11.5467 10.9036L8.49999 13.9636L5.45333 10.9036C4.85142 10.3011 4.44164 9.53375 4.27579 8.69845C4.10994 7.86314 4.19545 6.99742 4.52153 6.21071C4.84761 5.424 5.39961 4.75162 6.10775 4.27857C6.81589 3.80552 7.64838 3.55304 8.49999 3.55304C9.3516 3.55304 10.1841 3.80552 10.8922 4.27857C11.6004 4.75162 12.1524 5.424 12.4785 6.21071C12.8045 6.99742 12.8901 7.86314 12.7242 8.69845C12.5583 9.53375 12.1486 10.3011 11.5467 10.9036ZM6.49999 5.84359C5.9618 6.38343 5.65959 7.11463 5.65959 7.87692C5.65959 8.63921 5.9618 9.37041 6.49999 9.91025C6.89983 10.3108 7.40905 10.5843 7.96376 10.6965C8.51847 10.8087 9.09396 10.7546 9.61804 10.541C10.1421 10.3274 10.5914 9.96377 10.9096 9.49575C11.2278 9.02773 11.4007 8.47617 11.4067 7.91025C11.4097 7.53239 11.3369 7.15776 11.1926 6.80851C11.0483 6.45926 10.8355 6.14249 10.5667 5.87692C10.3024 5.60664 9.98738 5.39128 9.63961 5.24323C9.29184 5.09518 8.91822 5.01737 8.54026 5.01427C8.1623 5.01117 7.78746 5.08285 7.43731 5.22518C7.08716 5.36751 6.76861 5.57767 6.49999 5.84359ZM9.62666 8.96359C9.37402 9.22008 9.04013 9.38086 8.68208 9.41842C8.32402 9.45599 7.96404 9.36801 7.66366 9.16954C7.36329 8.97106 7.14119 8.67441 7.03533 8.33031C6.92947 7.9862 6.94643 7.61601 7.0833 7.28302C7.22017 6.95003 7.46846 6.67493 7.78572 6.50474C8.10297 6.33456 8.46949 6.27986 8.82262 6.35C9.17574 6.42014 9.49353 6.61076 9.72167 6.88927C9.9498 7.16779 10.0741 7.5169 10.0733 7.87692C10.0636 8.28843 9.89099 8.67927 9.59333 8.96359H9.62666Z" fill="#3E4245"/>
</svg>
