<svg width="20" height="20" viewBox="0 0 20 20" fill="none" xmlns="http://www.w3.org/2000/svg">
<path d="M8.04717 14.1664L5.83313 14.1664L5.83313 11.6664M5.0853 12.4143L14.5089 2.9906C15.1598 2.33972 16.2151 2.33972 16.866 2.9906C17.5168 3.64147 17.5168 4.69675 16.866 5.34762L7.30333 14.9103C6.85662 15.357 6.63326 15.5803 6.386 15.7724C6.16637 15.9429 5.93289 16.0949 5.688 16.2266C5.41229 16.375 5.11762 16.4888 4.52829 16.7163L2.5 17.4995L3.1526 15.5415C3.37532 14.8733 3.48669 14.5392 3.64158 14.2272C3.77914 13.9501 3.94212 13.6864 4.12841 13.4394C4.33818 13.1614 4.58722 12.9123 5.0853 12.4143Z" stroke="#1E1E1E" stroke-width="1.5" stroke-linecap="round" stroke-linejoin="round"/>
</svg>
