<svg width="17" height="16" viewBox="0 0 17 16" fill="none" xmlns="http://www.w3.org/2000/svg">
<path d="M15.1667 4.82684C15.1672 4.7391 15.1503 4.65213 15.1172 4.5709C15.084 4.48968 15.0351 4.4158 14.9733 4.35351L12.1467 1.52684C12.0844 1.46505 12.0105 1.41617 11.9293 1.38299C11.848 1.34982 11.7611 1.333 11.6733 1.33351C11.5856 1.333 11.4986 1.34982 11.4174 1.38299C11.3362 1.41617 11.2623 1.46505 11.2 1.52684L9.31332 3.41351L2.02666 10.7002C1.96487 10.7625 1.91599 10.8363 1.88281 10.9176C1.84963 10.9988 1.83282 11.0858 1.83332 11.1735V14.0002C1.83332 14.177 1.90356 14.3466 2.02859 14.4716C2.15361 14.5966 2.32318 14.6668 2.49999 14.6668H5.32666C5.41994 14.6719 5.51325 14.6573 5.60054 14.624C5.68782 14.5907 5.76713 14.5394 5.83332 14.4735L13.08 7.18684L14.9733 5.33351C15.0342 5.26889 15.0838 5.19453 15.12 5.11351C15.1264 5.06037 15.1264 5.00665 15.12 4.95351C15.1231 4.92247 15.1231 4.89121 15.12 4.86017L15.1667 4.82684ZM5.05332 13.3335H3.16666V11.4468L9.78666 4.82684L11.6733 6.71351L5.05332 13.3335ZM12.6133 5.77351L10.7267 3.88684L11.6733 2.94684L13.5533 4.82684L12.6133 5.77351Z" fill="black"/>
</svg>
