<svg width="41" height="40" viewBox="0 0 41 40" fill="none" xmlns="http://www.w3.org/2000/svg">
<rect x="0.5" width="40" height="40" rx="5" fill="black" fill-opacity="0.31"/>
<rect x="0.75" y="0.25" width="39.5" height="39.5" rx="4.75" stroke="white" stroke-opacity="0.52" stroke-width="0.5"/>
<path d="M19.1313 20.014L23.6713 15.477C23.7542 15.398 23.8204 15.3032 23.8661 15.1982C23.9117 15.0932 23.9359 14.9801 23.9372 14.8656C23.9384 14.7511 23.9168 14.6375 23.8735 14.5314C23.8301 14.4254 23.766 14.3292 23.6849 14.2483C23.6038 14.1675 23.5074 14.1037 23.4012 14.0608C23.2951 14.0178 23.1814 13.9965 23.0669 13.9981C22.9524 13.9998 22.8394 14.0243 22.7345 14.0703C22.6296 14.1164 22.535 14.1829 22.4563 14.266L17.3123 19.407C17.1569 19.563 17.0676 19.7729 17.063 19.993C17.0583 20.2131 17.1387 20.4266 17.2873 20.589L22.4533 25.765C22.6153 25.9194 22.8311 26.0045 23.0549 26.002C23.2786 25.9995 23.4926 25.9097 23.6511 25.7517C23.8096 25.5938 23.9001 25.3801 23.9033 25.1564C23.9065 24.9326 23.8222 24.7165 23.6683 24.554L19.1313 20.014Z" fill="white"/>
</svg>
