<svg width="25" height="24" viewBox="0 0 25 24" fill="none" xmlns="http://www.w3.org/2000/svg">
<path d="M17.5 11.0002H9.90999L13.21 7.71019C13.3983 7.52188 13.5041 7.26649 13.5041 7.00019C13.5041 6.73388 13.3983 6.47849 13.21 6.29019C13.0217 6.10188 12.7663 5.99609 12.5 5.99609C12.2337 5.99609 11.9783 6.10188 11.79 6.29019L6.78999 11.2902C6.69895 11.3853 6.62758 11.4974 6.57999 11.6202C6.47997 11.8636 6.47997 12.1367 6.57999 12.3802C6.62758 12.5029 6.69895 12.6151 6.78999 12.7102L11.79 17.7102C11.883 17.8039 11.9936 17.8783 12.1154 17.9291C12.2373 17.9798 12.368 18.006 12.5 18.006C12.632 18.006 12.7627 17.9798 12.8846 17.9291C13.0064 17.8783 13.117 17.8039 13.21 17.7102C13.3037 17.6172 13.3781 17.5066 13.4289 17.3848C13.4796 17.2629 13.5058 17.1322 13.5058 17.0002C13.5058 16.8682 13.4796 16.7375 13.4289 16.6156C13.3781 16.4937 13.3037 16.3831 13.21 16.2902L9.90999 13.0002H17.5C17.7652 13.0002 18.0196 12.8948 18.2071 12.7073C18.3946 12.5198 18.5 12.2654 18.5 12.0002C18.5 11.735 18.3946 11.4806 18.2071 11.2931C18.0196 11.1055 17.7652 11.0002 17.5 11.0002Z" fill="black"/>
</svg>
