<svg width="51" height="46" viewBox="0 0 51 46" fill="none" xmlns="http://www.w3.org/2000/svg">
<g opacity="0.07">
<path d="M4.66669 4.1665H7.38786C7.9004 4.1665 8.15667 4.1665 8.3629 4.26075C8.54464 4.34381 8.69866 4.47739 8.80658 4.64556C8.92905 4.83639 8.96529 5.09009 9.03778 5.59747L10.0238 12.4998M10.0238 12.4998L12.2153 28.6069C12.4934 30.6509 12.6324 31.6729 13.1211 32.4422C13.5516 33.1201 14.1689 33.6591 14.8987 33.9944C15.7268 34.3748 16.7582 34.3748 18.8211 34.3748H36.65C38.6137 34.3748 39.5955 34.3748 40.3979 34.0215C41.1053 33.71 41.7122 33.2078 42.1506 32.5711C42.6478 31.849 42.8315 30.8846 43.1989 28.9556L45.9565 14.4784C46.0858 13.7994 46.1505 13.46 46.0568 13.1946C45.9746 12.9619 45.8124 12.7658 45.5991 12.6415C45.356 12.4998 45.0104 12.4998 44.3193 12.4998H10.0238ZM21.3334 43.7498C21.3334 44.9004 20.4006 45.8332 19.25 45.8332C18.0994 45.8332 17.1667 44.9004 17.1667 43.7498C17.1667 42.5992 18.0994 41.6665 19.25 41.6665C20.4006 41.6665 21.3334 42.5992 21.3334 43.7498ZM38 43.7498C38 44.9004 37.0673 45.8332 35.9167 45.8332C34.7661 45.8332 33.8334 44.9004 33.8334 43.7498C33.8334 42.5992 34.7661 41.6665 35.9167 41.6665C37.0673 41.6665 38 42.5992 38 43.7498Z" stroke="#DB353F" stroke-width="4.16667" stroke-linecap="round" stroke-linejoin="round"/>
<path d="M4.66669 4.1665H7.38786C7.9004 4.1665 8.15667 4.1665 8.3629 4.26075C8.54464 4.34381 8.69866 4.47739 8.80658 4.64556C8.92905 4.83639 8.96529 5.09009 9.03778 5.59747L10.0238 12.4998M10.0238 12.4998L12.2153 28.6069C12.4934 30.6509 12.6324 31.6729 13.1211 32.4422C13.5516 33.1201 14.1689 33.6591 14.8987 33.9944C15.7268 34.3748 16.7582 34.3748 18.8211 34.3748H36.65C38.6137 34.3748 39.5955 34.3748 40.3979 34.0215C41.1053 33.71 41.7122 33.2078 42.1506 32.5711C42.6478 31.849 42.8315 30.8846 43.1989 28.9556L45.9565 14.4784C46.0858 13.7994 46.1505 13.46 46.0568 13.1946C45.9746 12.9619 45.8124 12.7658 45.5991 12.6415C45.356 12.4998 45.0104 12.4998 44.3193 12.4998H10.0238ZM21.3334 43.7498C21.3334 44.9004 20.4006 45.8332 19.25 45.8332C18.0994 45.8332 17.1667 44.9004 17.1667 43.7498C17.1667 42.5992 18.0994 41.6665 19.25 41.6665C20.4006 41.6665 21.3334 42.5992 21.3334 43.7498ZM38 43.7498C38 44.9004 37.0673 45.8332 35.9167 45.8332C34.7661 45.8332 33.8334 44.9004 33.8334 43.7498C33.8334 42.5992 34.7661 41.6665 35.9167 41.6665C37.0673 41.6665 38 42.5992 38 43.7498Z" stroke="black" stroke-opacity="0.2" stroke-width="4.16667" stroke-linecap="round" stroke-linejoin="round"/>
</g>
</svg>
