<svg width="136" height="136" viewBox="0 0 136 136" fill="none" xmlns="http://www.w3.org/2000/svg">
<path d="M55.4275 22.0467C58.6228 19.3237 60.2205 17.9622 61.8909 17.1638C65.7543 15.3172 70.2458 15.3172 74.1093 17.1638C75.7797 17.9622 77.3773 19.3237 80.5726 22.0467C81.8443 23.1304 82.4802 23.6723 83.1593 24.1275C84.716 25.1708 86.4643 25.895 88.3028 26.258C89.1048 26.4163 89.9376 26.4828 91.6032 26.6157C95.7881 26.9496 97.8805 27.1166 99.6262 27.7332C103.664 29.1594 106.84 32.3353 108.266 36.373C108.883 38.1187 109.05 40.2111 109.383 44.3959C109.516 46.0615 109.583 46.8943 109.741 47.6964C110.104 49.5349 110.828 51.2832 111.872 52.8399C112.327 53.519 112.869 54.1548 113.953 55.4266C116.675 58.6218 118.037 60.2195 118.835 61.8899C120.682 65.7534 120.682 70.2448 118.835 74.1083C118.037 75.7787 116.675 77.3764 113.953 80.5716C112.869 81.8434 112.327 82.4792 111.872 83.1583C110.828 84.715 110.104 86.4633 109.741 88.3018C109.583 89.1039 109.516 89.9367 109.383 91.6022C109.05 95.7871 108.883 97.8795 108.266 99.6252C106.84 103.663 103.664 106.839 99.6262 108.265C97.8805 108.882 95.7881 109.049 91.6032 109.382C89.9376 109.515 89.1048 109.582 88.3028 109.74C86.4643 110.103 84.716 110.827 83.1593 111.871C82.4802 112.326 81.8443 112.868 80.5726 113.952C77.3773 116.675 75.7797 118.036 74.1093 118.834C70.2458 120.681 65.7544 120.681 61.8909 118.834C60.2205 118.036 58.6228 116.675 55.4275 113.952C54.1558 112.868 53.5199 112.326 52.8408 111.871C51.2841 110.827 49.5359 110.103 47.6973 109.74C46.8953 109.582 46.0625 109.515 44.3969 109.382C40.2121 109.049 38.1196 108.882 36.3739 108.265C32.3363 106.839 29.1603 103.663 27.7342 99.6252C27.1176 97.8795 26.9506 95.7871 26.6167 91.6022C26.4838 89.9367 26.4173 89.1039 26.259 88.3018C25.896 86.4633 25.1718 84.715 24.1284 83.1583C23.6733 82.4792 23.1314 81.8434 22.0476 80.5716C19.3246 77.3764 17.9631 75.7787 17.1647 74.1083C15.3181 70.2448 15.3181 65.7534 17.1647 61.8899C17.9631 60.2195 19.3246 58.6218 22.0476 55.4266C23.1314 54.1548 23.6733 53.519 24.1284 52.8399C25.1718 51.2832 25.896 49.5349 26.259 47.6964C26.4173 46.8943 26.4838 46.0615 26.6167 44.3959C26.9506 40.2111 27.1176 38.1187 27.7342 36.373C29.1603 32.3353 32.3363 29.1594 36.3739 27.7332C38.1196 27.1166 40.2121 26.9496 44.3969 26.6157C46.0625 26.4828 46.8953 26.4163 47.6973 26.258C49.5359 25.895 51.2841 25.1708 52.8408 24.1275C53.5199 23.6723 54.1558 23.1304 55.4275 22.0467Z" fill="url(#paint0_linear_829_36559)"/>
<path d="M51 85L85 51" stroke="white" stroke-width="7.55556" stroke-linecap="round"/>
<path d="M82.167 80.2773C83.21 80.2775 84.0557 81.1239 84.0557 82.167C84.0555 83.2099 83.2099 84.0555 82.167 84.0557C81.1239 84.0557 80.2775 83.21 80.2773 82.167C80.2773 81.1238 81.1238 80.2773 82.167 80.2773Z" fill="white" stroke="white" stroke-width="7.55556"/>
<path d="M53.8337 51.9438C54.8767 51.944 55.7224 52.7904 55.7224 53.8335C55.7222 54.8764 54.8766 55.722 53.8337 55.7222C52.7906 55.7222 51.9442 54.8766 51.944 53.8335C51.944 52.7903 52.7905 51.9438 53.8337 51.9438Z" fill="white" stroke="white" stroke-width="7.55556"/>
<defs>
<linearGradient id="paint0_linear_829_36559" x1="26.4454" y1="30.2222" x2="105.779" y2="105.778" gradientUnits="userSpaceOnUse">
<stop stop-color="#A3D7FF"/>
<stop offset="0.58638" stop-color="#1F76B8"/>
<stop offset="1" stop-color="#01365E"/>
</linearGradient>
</defs>
</svg>
