<svg width="344" height="92" viewBox="0 0 344 92" fill="none" xmlns="http://www.w3.org/2000/svg">
<path d="M1.42936 88.6423C1.60113 88.6423 1.76954 88.6899 1.91589 88.7799L5.58623 91.035C6.54958 91.6269 7.76392 91.6269 8.72727 91.035L12.0756 88.9777C12.4325 88.7584 12.8432 88.6423 13.2621 88.6423C13.6809 88.6423 14.0916 88.7584 14.4485 88.9777L17.7969 91.035C18.7602 91.6269 19.9745 91.6269 20.9379 91.035L24.2862 88.9777C24.6431 88.7584 25.0538 88.6423 25.4727 88.6423C25.8915 88.6423 26.3022 88.7584 26.6591 88.9777L30.0074 91.035C30.9708 91.6269 32.1851 91.6269 33.1485 91.035L36.4968 88.9777C36.8537 88.7584 37.2644 88.6423 37.6833 88.6423C38.1022 88.6423 38.5128 88.7584 38.8697 88.9777L42.2181 91.035C43.1814 91.6269 44.3958 91.6269 45.3591 91.035L48.7075 88.9777C49.0643 88.7584 49.475 88.6423 49.8939 88.6423C50.3128 88.6423 50.7234 88.7584 51.0803 88.9777L54.4287 91.035C55.392 91.6269 56.6063 91.6269 57.5697 91.035L60.918 88.9777C61.2749 88.7584 61.6856 88.6423 62.1045 88.6423C62.5234 88.6423 62.9341 88.7584 63.291 88.9777L66.6393 91.035C67.6026 91.6269 68.817 91.6269 69.7803 91.035L73.1287 88.9777C73.4856 88.7584 73.8962 88.6423 74.3151 88.6423C74.734 88.6423 75.1447 88.7584 75.5016 88.9777L78.8499 91.035C79.8133 91.6269 81.0276 91.6269 81.991 91.035L85.3393 88.9777C85.6962 88.7584 86.1069 88.6423 86.5257 88.6423C86.9446 88.6423 87.3553 88.7584 87.7122 88.9777L91.0605 91.035C92.0239 91.6269 93.2382 91.6269 94.2016 91.035L97.5499 88.9777C97.9068 88.7584 98.3175 88.6423 98.7363 88.6423C99.1552 88.6423 99.5659 88.7584 99.9228 88.9777L103.271 91.035C104.234 91.6269 105.449 91.6269 106.412 91.035L109.76 88.9777C110.117 88.7584 110.528 88.6423 110.947 88.6423C111.366 88.6423 111.776 88.7584 112.133 88.9777L115.482 91.035C116.445 91.6269 117.659 91.6269 118.623 91.035L121.971 88.9777C122.328 88.7584 122.739 88.6423 123.158 88.6423C123.576 88.6423 123.987 88.7584 124.344 88.9777L127.692 91.035C128.656 91.6269 129.87 91.6269 130.833 91.035L134.182 88.9777C134.539 88.7584 134.949 88.6423 135.368 88.6423C135.787 88.6423 136.198 88.7584 136.555 88.9777L139.903 91.035C140.866 91.6269 142.081 91.6269 143.044 91.035L146.392 88.9777C146.749 88.7584 147.16 88.6423 147.579 88.6423C147.998 88.6423 148.408 88.7584 148.765 88.9777L152.114 91.035C153.077 91.6269 154.291 91.6269 155.255 91.035L158.603 88.9777C158.96 88.7584 159.371 88.6423 159.789 88.6423C160.208 88.6423 160.619 88.7584 160.976 88.9777L164.324 91.035C165.288 91.6269 166.502 91.6269 167.465 91.035L170.814 88.9777C171.17 88.7584 171.581 88.6423 172 88.6423C172.419 88.6423 172.83 88.7584 173.186 88.9777L176.535 91.035C177.498 91.6269 178.712 91.6269 179.676 91.035L183.024 88.9777C183.381 88.7584 183.792 88.6423 184.211 88.6423C184.629 88.6423 185.04 88.7584 185.397 88.9777L188.745 91.035C189.709 91.6269 190.923 91.6269 191.886 91.035L195.235 88.9777C195.592 88.7584 196.002 88.6423 196.421 88.6423C196.84 88.6423 197.251 88.7584 197.608 88.9777L200.956 91.035C201.919 91.6269 203.134 91.6269 204.097 91.035L207.445 88.9777C207.802 88.7584 208.213 88.6423 208.632 88.6423C209.051 88.6423 209.461 88.7584 209.818 88.9777L213.167 91.035C214.13 91.6269 215.344 91.6269 216.308 91.035L219.656 88.9777C220.013 88.7584 220.424 88.6423 220.842 88.6423C221.261 88.6423 221.672 88.7584 222.029 88.9777L225.377 91.035C226.341 91.6269 227.555 91.6269 228.518 91.035L231.867 88.9777C232.223 88.7584 232.634 88.6423 233.053 88.6423C233.472 88.6423 233.883 88.7584 234.24 88.9777L237.588 91.035C238.551 91.6269 239.766 91.6269 240.729 91.035L244.077 88.9777C244.434 88.7584 244.845 88.6423 245.264 88.6423C245.683 88.6423 246.093 88.7584 246.45 88.9777L249.798 91.035C250.762 91.6269 251.976 91.6269 252.939 91.035L256.288 88.9777C256.645 88.7584 257.055 88.6423 257.474 88.6423C257.893 88.6423 258.304 88.7584 258.661 88.9777L262.009 91.035C262.972 91.6269 264.187 91.6269 265.15 91.035L268.498 88.9777C268.855 88.7584 269.266 88.6423 269.685 88.6423C270.104 88.6423 270.514 88.7584 270.871 88.9777L274.22 91.035C275.183 91.6269 276.397 91.6269 277.361 91.035L280.709 88.9777C281.066 88.7584 281.477 88.6423 281.895 88.6423C282.314 88.6423 282.725 88.7584 283.082 88.9777L286.43 91.035C287.394 91.6269 288.608 91.6269 289.571 91.035L292.92 88.9777C293.276 88.7584 293.687 88.6423 294.106 88.6423C294.525 88.6423 294.936 88.7584 295.292 88.9777L298.64 91.035C299.604 91.6269 300.818 91.6269 301.782 91.035L305.13 88.9778C305.487 88.7585 305.897 88.6423 306.316 88.6423C306.736 88.6423 307.146 88.7585 307.503 88.9778L310.851 91.035C311.815 91.6269 313.029 91.6269 313.993 91.035L317.341 88.9777C317.698 88.7584 318.108 88.6423 318.527 88.6423C318.946 88.6423 319.357 88.7584 319.714 88.9777L323.062 91.035C324.025 91.6269 325.24 91.6269 326.203 91.035L329.552 88.9777C329.908 88.7584 330.319 88.6423 330.738 88.6423C331.157 88.6423 331.567 88.7584 331.924 88.9777L335.273 91.035C336.236 91.6269 337.45 91.6269 338.414 91.035L342.084 88.7799C342.23 88.6899 342.399 88.6423 342.571 88.6423C343.084 88.6423 343.5 88.2262 343.5 87.713V16C343.5 7.16344 336.337 0 327.5 0H16.5C7.66345 0 0.5 7.16344 0.5 16V87.713C0.5 88.2262 0.91609 88.6423 1.42936 88.6423Z" fill="url(#paint0_linear_819_16780)" fill-opacity="0.07"/>
<defs>
<linearGradient id="paint0_linear_819_16780" x1="-18.8842" y1="52.0438" x2="393.286" y2="52.0438" gradientUnits="userSpaceOnUse">
<stop offset="0.0001" stop-color="#6300A3"/>
<stop offset="1" stop-color="#00E2AE"/>
</linearGradient>
</defs>
</svg>
