<svg width="15" height="14" viewBox="0 0 15 14" fill="none" xmlns="http://www.w3.org/2000/svg">
<path d="M7.49999 12.8332C4.27833 12.8332 1.66666 10.2215 1.66666 6.99984C1.66666 3.77817 4.27833 1.1665 7.49999 1.1665C10.7216 1.1665 13.3333 3.77817 13.3333 6.99984C13.3333 10.2215 10.7216 12.8332 7.49999 12.8332ZM7.49999 11.6665C10.0773 11.6665 12.1667 9.57718 12.1667 6.99984C12.1667 4.42251 10.0773 2.33317 7.49999 2.33317C4.92266 2.33317 2.83332 4.42251 2.83332 6.99984C2.83332 9.57718 4.92266 11.6665 7.49999 11.6665ZM8.08332 6.99984H10.4167V8.1665H6.91666V4.08317H8.08332V6.99984Z" fill="#1F76B8"/>
</svg>
