<svg width="41" height="40" viewBox="0 0 41 40" fill="none" xmlns="http://www.w3.org/2000/svg">
<rect x="0.5" width="40" height="40" rx="5" fill="black" fill-opacity="0.31"/>
<rect x="0.75" y="0.25" width="39.5" height="39.5" rx="4.75" stroke="white" stroke-opacity="0.52" stroke-width="0.5"/>
<path d="M17.09 21.51L23.92 25.49M23.91 14.51L17.09 18.49M29.5 13C29.5 14.6569 28.1569 16 26.5 16C24.8431 16 23.5 14.6569 23.5 13C23.5 11.3431 24.8431 10 26.5 10C28.1569 10 29.5 11.3431 29.5 13ZM17.5 20C17.5 21.6569 16.1569 23 14.5 23C12.8431 23 11.5 21.6569 11.5 20C11.5 18.3431 12.8431 17 14.5 17C16.1569 17 17.5 18.3431 17.5 20ZM29.5 27C29.5 28.6569 28.1569 30 26.5 30C24.8431 30 23.5 28.6569 23.5 27C23.5 25.3431 24.8431 24 26.5 24C28.1569 24 29.5 25.3431 29.5 27Z" stroke="white" stroke-width="1.5" stroke-linecap="round" stroke-linejoin="round"/>
</svg>
